# xmcd CD database file
#
# Track frame offsets:
#	150
#	22562
#	43497
#	75035
#
# Disc length: 1499 seconds
#
# Revision: 4
# Processed by: cddbd v1.5.2PL0 Copyright (c) Steve Scherf et al.
# Submitted via: CDex 1.51
#
DISCID=1b05d904
DTITLE=Sting - When We DANCE  (Maxi)
DYEAR=1994
DGENRE=Pop
TTITLE0=When We Dance (Edit)
TTITLE1=Fortress Around Your Heart (Hugh Padgham Remix)
TTITLE2=If You Love Somebody Set Them Free (Soulpower Mix)
TTITLE3=If You Love Somebody Set Them Free (Soulpower Deep Dub)
EXTD=YEAR: 1994
EXTT0=
EXTT1=
EXTT2=
EXTT3=
PLAYORDER=
